<svg width="32" height="21" viewBox="0 0 32 21" fill="none" xmlns="http://www.w3.org/2000/svg">
<path fill-rule="evenodd" clip-rule="evenodd" d="M16 0C12.3594 0 9.48799 0.776819 7.1293 1.94205C4.77062 3.10728 3.95021 4.09125 2.95033 5.10111C1.95045 6.11097 1.05313 7.69051 0.540375 9.45129C0.027624 11.2121 -0.126201 12.7398 0.104532 15.2515C0.335265 17.7633 2.28375 18.9909 2.79651 19.2651C3.30926 19.5393 6.59091 20.5339 7.61642 20.5339C8.64193 20.5339 13.5388 21 16 21C18.4612 21 23.3732 20.5882 24.3836 20.5339C25.3939 20.4796 28.697 19.6531 29.2035 19.2651C29.71 18.8771 31.6647 17.7633 31.8955 15.2515C32.1262 12.7398 31.9724 11.2121 31.4596 9.45129C30.9469 7.69051 30.0495 6.11097 29.0497 5.10111C28.0498 4.09125 27.2294 3.10728 24.8707 1.94205C22.512 0.776819 19.6406 0 16 0ZM10.2571 15.5882C12.0129 15.5882 13.4362 14.1506 13.4362 12.3773C13.4362 10.604 12.0129 9.16646 10.2571 9.16646C8.50136 9.16646 7.07803 10.604 7.07803 12.3773C7.07803 14.1506 8.50136 15.5882 10.2571 15.5882ZM20.7273 15.1221C22.483 15.1221 23.9064 13.6845 23.9064 11.9112C23.9064 10.1379 22.483 8.70037 20.7273 8.70037C18.9715 8.70037 17.5482 10.1379 17.5482 11.9112C17.5482 13.6845 18.9715 15.1221 20.7273 15.1221Z" fill="white"/>
</svg>
